<mxfile host="app.diagrams.net" agent="Mozilla/5.0 (Windows NT 10.0; Win64; x64; rv:134.0) Gecko/20100101 Firefox/134.0" version="26.0.11">
  <diagram name="Page-1" id="4bEmmgy40c0Yq6NT1J7E">
    <mxGraphModel dx="724" dy="385" grid="1" gridSize="10" guides="1" tooltips="1" connect="1" arrows="1" fold="1" page="1" pageScale="1" pageWidth="850" pageHeight="1100" math="0" shadow="0">
      <root>
        <mxCell id="0" />
        <mxCell id="1" parent="0" />
        <mxCell id="hxfTvokO1WppnXc-I8BG-27" value="" style="group;align=left;" vertex="1" connectable="0" parent="1">
          <mxGeometry x="320" y="100" width="120" height="210" as="geometry" />
        </mxCell>
        <mxCell id="hxfTvokO1WppnXc-I8BG-25" value="" style="rounded=1;whiteSpace=wrap;html=1;" vertex="1" parent="hxfTvokO1WppnXc-I8BG-27">
          <mxGeometry width="120" height="130" as="geometry" />
        </mxCell>
        <mxCell id="hxfTvokO1WppnXc-I8BG-26" value="&lt;font face=&quot;Times New Roman&quot;&gt;&lt;b&gt;Operation&lt;/b&gt;&lt;/font&gt;" style="text;html=1;align=center;verticalAlign=middle;whiteSpace=wrap;rounded=0;" vertex="1" parent="hxfTvokO1WppnXc-I8BG-27">
          <mxGeometry width="120" height="43.333333333333336" as="geometry" />
        </mxCell>
        <mxCell id="hxfTvokO1WppnXc-I8BG-34" value="&lt;div align=&quot;left&quot;&gt;#ID&lt;/div&gt;&lt;div align=&quot;left&quot;&gt;*Datetime&lt;/div&gt;&lt;div align=&quot;left&quot;&gt;*Doctor&lt;/div&gt;&lt;div align=&quot;left&quot;&gt;*Theatre&lt;br&gt;&lt;/div&gt;" style="text;html=1;align=left;verticalAlign=middle;whiteSpace=wrap;rounded=0;" vertex="1" parent="hxfTvokO1WppnXc-I8BG-27">
          <mxGeometry x="10" y="49.998888888888885" width="60" height="43.333333333333336" as="geometry" />
        </mxCell>
        <mxCell id="hxfTvokO1WppnXc-I8BG-28" value="" style="group" vertex="1" connectable="0" parent="1">
          <mxGeometry x="520" y="100" width="120" height="130" as="geometry" />
        </mxCell>
        <mxCell id="hxfTvokO1WppnXc-I8BG-29" value="" style="rounded=1;whiteSpace=wrap;html=1;" vertex="1" parent="hxfTvokO1WppnXc-I8BG-28">
          <mxGeometry width="120" height="130" as="geometry" />
        </mxCell>
        <mxCell id="hxfTvokO1WppnXc-I8BG-30" value="&lt;b&gt;&lt;font face=&quot;Times New Roman&quot;&gt;Doctor&lt;/font&gt;&lt;/b&gt;" style="text;html=1;align=center;verticalAlign=middle;whiteSpace=wrap;rounded=0;" vertex="1" parent="hxfTvokO1WppnXc-I8BG-28">
          <mxGeometry y="-11.818181818181818" width="120" height="59.09090909090909" as="geometry" />
        </mxCell>
        <mxCell id="hxfTvokO1WppnXc-I8BG-56" value="&lt;div&gt;&lt;br&gt;&lt;/div&gt;&lt;div&gt;#ID&lt;br&gt;&lt;/div&gt;&lt;div&gt;*Name&lt;/div&gt;&lt;div&gt;*Telephone&lt;/div&gt;&lt;div&gt;*Emaill&lt;br&gt;&lt;/div&gt;" style="text;html=1;align=left;verticalAlign=middle;whiteSpace=wrap;rounded=0;" vertex="1" parent="hxfTvokO1WppnXc-I8BG-28">
          <mxGeometry x="10" y="39.39050505050501" width="60" height="51.21212121212122" as="geometry" />
        </mxCell>
        <mxCell id="hxfTvokO1WppnXc-I8BG-31" value="" style="group" vertex="1" connectable="0" parent="1">
          <mxGeometry x="320" y="360" width="120" height="90" as="geometry" />
        </mxCell>
        <mxCell id="hxfTvokO1WppnXc-I8BG-32" value="" style="rounded=1;whiteSpace=wrap;html=1;" vertex="1" parent="hxfTvokO1WppnXc-I8BG-31">
          <mxGeometry width="120" height="90" as="geometry" />
        </mxCell>
        <mxCell id="hxfTvokO1WppnXc-I8BG-33" value="&lt;font face=&quot;Times New Roman&quot;&gt;&lt;b&gt;Appointment&lt;/b&gt;&lt;/font&gt;" style="text;html=1;align=center;verticalAlign=middle;whiteSpace=wrap;rounded=0;" vertex="1" parent="hxfTvokO1WppnXc-I8BG-31">
          <mxGeometry width="120" height="30" as="geometry" />
        </mxCell>
        <mxCell id="hxfTvokO1WppnXc-I8BG-54" value="" style="group;rotation=90;" vertex="1" connectable="0" parent="1">
          <mxGeometry x="375" y="280" width="10" height="80" as="geometry" />
        </mxCell>
        <mxCell id="hxfTvokO1WppnXc-I8BG-48" value="" style="endArrow=none;html=1;rounded=0;" edge="1" parent="hxfTvokO1WppnXc-I8BG-54">
          <mxGeometry width="50" height="50" relative="1" as="geometry">
            <mxPoint x="5" y="80" as="sourcePoint" />
            <mxPoint x="5" y="10" as="targetPoint" />
          </mxGeometry>
        </mxCell>
        <mxCell id="hxfTvokO1WppnXc-I8BG-49" value="" style="group" vertex="1" connectable="0" parent="hxfTvokO1WppnXc-I8BG-54">
          <mxGeometry width="10" height="10" as="geometry" />
        </mxCell>
        <mxCell id="hxfTvokO1WppnXc-I8BG-50" value="" style="endArrow=none;html=1;rounded=0;" edge="1" parent="hxfTvokO1WppnXc-I8BG-49">
          <mxGeometry width="50" height="50" relative="1" as="geometry">
            <mxPoint x="5" y="10" as="sourcePoint" />
            <mxPoint as="targetPoint" />
          </mxGeometry>
        </mxCell>
        <mxCell id="hxfTvokO1WppnXc-I8BG-51" value="" style="endArrow=none;html=1;rounded=0;" edge="1" parent="hxfTvokO1WppnXc-I8BG-49">
          <mxGeometry width="50" height="50" relative="1" as="geometry">
            <mxPoint x="5" y="10" as="sourcePoint" />
            <mxPoint x="10" as="targetPoint" />
          </mxGeometry>
        </mxCell>
        <mxCell id="hxfTvokO1WppnXc-I8BG-52" value="" style="endArrow=none;html=1;rounded=0;" edge="1" parent="hxfTvokO1WppnXc-I8BG-49">
          <mxGeometry width="50" height="50" relative="1" as="geometry">
            <mxPoint x="5" y="10" as="sourcePoint" />
            <mxPoint x="5" as="targetPoint" />
          </mxGeometry>
        </mxCell>
        <mxCell id="hxfTvokO1WppnXc-I8BG-57" value="" style="group;align=left;" vertex="1" connectable="0" parent="1">
          <mxGeometry x="520" y="260" width="120" height="210" as="geometry" />
        </mxCell>
        <mxCell id="hxfTvokO1WppnXc-I8BG-58" value="" style="rounded=1;whiteSpace=wrap;html=1;" vertex="1" parent="hxfTvokO1WppnXc-I8BG-57">
          <mxGeometry width="120" height="130" as="geometry" />
        </mxCell>
        <mxCell id="hxfTvokO1WppnXc-I8BG-59" value="&lt;font face=&quot;Times New Roman&quot;&gt;&lt;b&gt;Patient&lt;/b&gt;&lt;/font&gt;" style="text;html=1;align=center;verticalAlign=middle;whiteSpace=wrap;rounded=0;" vertex="1" parent="hxfTvokO1WppnXc-I8BG-57">
          <mxGeometry width="120" height="43.333333333333336" as="geometry" />
        </mxCell>
        <mxCell id="hxfTvokO1WppnXc-I8BG-60" value="&lt;div align=&quot;left&quot;&gt;#ID&lt;/div&gt;&lt;div align=&quot;left&quot;&gt;*Name&lt;/div&gt;&lt;div align=&quot;left&quot;&gt;*Telephone&lt;/div&gt;&lt;div align=&quot;left&quot;&gt;*Dateofbirth&lt;/div&gt;&lt;div align=&quot;left&quot;&gt;*GP&lt;br&gt;&lt;/div&gt;" style="text;html=1;align=left;verticalAlign=middle;whiteSpace=wrap;rounded=0;" vertex="1" parent="hxfTvokO1WppnXc-I8BG-57">
          <mxGeometry x="10" y="49.998888888888885" width="60" height="43.333333333333336" as="geometry" />
        </mxCell>
      </root>
    </mxGraphModel>
  </diagram>
</mxfile>
